<?xml version="1.0" encoding="UTF-8"?>
<svg id="Capa_1" data-name="Capa 1" xmlns="http://www.w3.org/2000/svg" viewBox="0 0 1080 1080">
  <defs>
    <style>
      .cls-1 {
        fill: #1c3661;
      }
    </style>
  </defs>
  <path class="cls-1" d="M805.31,385.76l105.5,191.16-143.34,250.85-1.13,9.06,73.26,120.51,70.48-122.78c-3.87-21.06-38.1-51.81-31.75-72.51,24.51-31.45,40.78-81.83,64.97-111.69,3.21-3.96,5.48-8.21,11.62-6.99l105.25,188.58-73.66,130.48-297.41-.6-72.98-124.21,1.23-10.76,143.59-247.18c3.77-15.13-33.29-51.31-33.39-70.18,19.97-38.27,43.76-74.48,64.66-112.18,4.65-8.39.29-14.77,13.1-11.57Z"/>
  <path class="cls-1" d="M94.66,962.38l-74.82-129.32,147.81-255.84,151.27,1.4,143.79,249.88c11.5,13.08,65.62-2.52,80.19,8.05,2.74,1.99,69.31,125.83,69.31,125.83h-223.99l-147.63-257.92H101.45l-3.64,6.92,68.07,118.69,78.36,6.48,72.7,125.83H94.66Z"/>
  <polygon class="cls-1" points="208.35 511.02 316.92 319.25 613.36 317.03 691.92 191.97 763.74 319.25 690.24 444.82 393.84 447.07 357.67 511.02 208.35 511.02"/>
  <polygon class="cls-1" points="686.86 188.61 542.63 188.61 501.9 253.09 354.28 253.09 461.3 66.56 465 59.72 471.43 59.72 614.77 59.72 686.86 188.61"/>
  <polygon class="cls-1" points="663.11 558.53 539.23 772.27 418.76 558.53 663.11 558.53"/>
</svg>